<svg width="181" height="32" viewBox="0 0 181 32" fill="none" xmlns="http://www.w3.org/2000/svg">
<path d="M8.55188 25H0.0776928V1.09486H8.62191C11.0264 1.09486 13.0963 1.57343 14.8316 2.53057C16.5669 3.47993 17.9015 4.8456 18.8353 6.62759C19.7769 8.40958 20.2477 10.5417 20.2477 13.0241C20.2477 15.5142 19.7769 17.6541 18.8353 19.4439C17.9015 21.2337 16.5592 22.6072 14.8083 23.5643C13.0652 24.5214 10.9797 25 8.55188 25ZM5.13186 20.6695H8.34177C9.83585 20.6695 11.0926 20.405 12.112 19.8758C13.1391 19.3389 13.9095 18.5101 14.4231 17.3896C14.9445 16.2612 15.2052 14.8061 15.2052 13.0241C15.2052 11.2577 14.9445 9.81417 14.4231 8.69361C13.9095 7.57306 13.143 6.74821 12.1236 6.21906C11.1043 5.68991 9.84752 5.42533 8.35345 5.42533H5.13186V20.6695ZM29.0107 25.3385C27.8668 25.3385 26.8474 25.1401 25.9526 24.7432C25.0577 24.3386 24.3495 23.7433 23.8282 22.9573C23.3146 22.1636 23.0578 21.1753 23.0578 19.9925C23.0578 18.9965 23.2407 18.16 23.6064 17.483C23.9721 16.806 24.4702 16.2612 25.1005 15.8488C25.7308 15.4364 26.4467 15.1251 27.2482 14.915C28.0575 14.7049 28.9057 14.5571 29.7928 14.4715C30.8355 14.3625 31.6759 14.2614 32.314 14.168C32.9521 14.0668 33.4151 13.919 33.7031 13.7244C33.991 13.5299 34.1349 13.242 34.1349 12.8607V12.7906C34.1349 12.0514 33.9015 11.4794 33.4346 11.0748C32.9755 10.6701 32.3218 10.4678 31.4736 10.4678C30.5787 10.4678 29.8667 10.6663 29.3376 11.0631C28.8084 11.4522 28.4582 11.9424 28.287 12.5338L23.6881 12.1603C23.9216 11.0709 24.3807 10.1293 25.0655 9.3356C25.7502 8.53409 26.6334 7.91934 27.7151 7.49135C28.8045 7.05558 30.0651 6.8377 31.497 6.8377C32.493 6.8377 33.4463 6.95442 34.3567 7.18787C35.2749 7.42132 36.0881 7.78316 36.7962 8.2734C37.5122 8.76365 38.0763 9.39396 38.4887 10.1643C38.9012 10.9269 39.1074 11.8413 39.1074 12.9074V25H34.3917V22.5138H34.2517C33.9637 23.074 33.5785 23.5682 33.0961 23.9962C32.6136 24.4164 32.0339 24.7471 31.3569 24.9883C30.6799 25.2218 29.8978 25.3385 29.0107 25.3385ZM30.4348 21.9068C31.1662 21.9068 31.8121 21.7628 32.3724 21.4749C32.9327 21.1792 33.3723 20.7824 33.6914 20.2843C34.0104 19.7863 34.1699 19.2221 34.1699 18.5918V16.6892C34.0143 16.7904 33.8003 16.8838 33.528 16.9694C33.2634 17.0472 32.9638 17.1211 32.6292 17.1911C32.2946 17.2534 31.96 17.3118 31.6254 17.3662C31.2907 17.4129 30.9873 17.4557 30.7149 17.4946C30.1313 17.5802 29.6216 17.7164 29.1858 17.9032C28.75 18.0899 28.4115 18.3428 28.1703 18.6619C27.9291 18.9731 27.8085 19.3622 27.8085 19.8291C27.8085 20.5061 28.0536 21.0236 28.5438 21.3815C29.0419 21.7317 29.6722 21.9068 30.4348 21.9068ZM47.9376 1.09486V25H42.9651V1.09486H47.9376ZM54.9906 31.7233C54.3603 31.7233 53.7689 31.6727 53.2164 31.5716C52.6717 31.4782 52.2204 31.3576 51.8624 31.2097L52.983 27.4979C53.5666 27.6769 54.0919 27.7741 54.5588 27.7897C55.0334 27.8053 55.442 27.6963 55.7844 27.4629C56.1345 27.2294 56.4186 26.8326 56.6365 26.2723L56.9283 25.5136L50.4968 7.07114H55.726L59.4378 20.2376H59.6246L63.3715 7.07114H68.6357L61.6673 26.9376C61.3327 27.9025 60.8774 28.743 60.3016 29.4589C59.7335 30.1826 59.0137 30.7389 58.1422 31.128C57.2707 31.5249 56.2201 31.7233 54.9906 31.7233Z" fill="#18181B"/>
<path d="M87.1249 8.82201C86.9614 8.25395 86.7319 7.75204 86.4362 7.31626C86.1405 6.87271 85.7786 6.4992 85.3506 6.19571C84.9304 5.88445 84.448 5.64711 83.9033 5.48369C83.3663 5.32028 82.771 5.23857 82.1174 5.23857C80.8957 5.23857 79.8218 5.54206 78.8958 6.14902C77.9776 6.75599 77.2616 7.6392 76.7481 8.79866C76.2345 9.95034 75.9777 11.3588 75.9777 13.0241C75.9777 14.6894 76.2306 16.1056 76.7364 17.2728C77.2422 18.4401 77.9581 19.3311 78.8841 19.9458C79.8101 20.5528 80.9034 20.8563 82.1641 20.8563C83.308 20.8563 84.2846 20.654 85.0939 20.2493C85.9109 19.8369 86.5335 19.2572 86.9614 18.5101C87.3972 17.7631 87.6151 16.8799 87.6151 15.8605L88.6423 16.0122H82.4792V12.207H92.4825V15.2185C92.4825 17.3195 92.0389 19.1249 91.1518 20.6345C90.2647 22.1364 89.043 23.2958 87.4867 24.1129C85.9304 24.9222 84.1484 25.3268 82.1407 25.3268C79.8996 25.3268 77.9309 24.8327 76.2345 23.8444C74.5381 22.8484 73.2152 21.436 72.2658 19.6073C71.3243 17.7709 70.8535 15.592 70.8535 13.0708C70.8535 11.1332 71.1336 9.40563 71.6939 7.88821C72.262 6.36302 73.0557 5.07127 74.0751 4.01297C75.0945 2.95467 76.2812 2.14927 77.6352 1.59677C78.9892 1.04428 80.456 0.768031 82.0357 0.768031C83.3897 0.768031 84.6503 0.966462 85.8175 1.36333C86.9848 1.75241 88.0197 2.3049 88.9224 3.02081C89.8329 3.73672 90.576 4.58881 91.1518 5.57707C91.7277 6.55756 92.0973 7.6392 92.2607 8.82201H87.1249ZM101.298 25.3385C100.154 25.3385 99.1348 25.1401 98.2399 24.7432C97.345 24.3386 96.6369 23.7433 96.1155 22.9573C95.602 22.1636 95.3452 21.1753 95.3452 19.9925C95.3452 18.9965 95.528 18.16 95.8938 17.483C96.2595 16.806 96.7575 16.2612 97.3878 15.8488C98.0181 15.4364 98.7341 15.1251 99.5356 14.915C100.345 14.7049 101.193 14.5571 102.08 14.4715C103.123 14.3625 103.963 14.2614 104.601 14.168C105.239 14.0668 105.703 13.919 105.99 13.7244C106.278 13.5299 106.422 13.242 106.422 12.8607V12.7906C106.422 12.0514 106.189 11.4794 105.722 11.0748C105.263 10.6701 104.609 10.4678 103.761 10.4678C102.866 10.4678 102.154 10.6663 101.625 11.0631C101.096 11.4522 100.746 11.9424 100.574 12.5338L95.9755 12.1603C96.2089 11.0709 96.668 10.1293 97.3528 9.3356C98.0376 8.53409 98.9208 7.91934 100.002 7.49135C101.092 7.05558 102.353 6.8377 103.784 6.8377C104.78 6.8377 105.734 6.95442 106.644 7.18787C107.562 7.42132 108.375 7.78316 109.084 8.2734C109.8 8.76365 110.364 9.39396 110.776 10.1643C111.189 10.9269 111.395 11.8413 111.395 12.9074V25H106.679V22.5138H106.539C106.251 23.074 105.866 23.5682 105.383 23.9962C104.901 24.4164 104.321 24.7471 103.644 24.9883C102.967 25.2218 102.185 25.3385 101.298 25.3385ZM102.722 21.9068C103.454 21.9068 104.099 21.7628 104.66 21.4749C105.22 21.1792 105.66 20.7824 105.979 20.2843C106.298 19.7863 106.457 19.2221 106.457 18.5918V16.6892C106.302 16.7904 106.088 16.8838 105.815 16.9694C105.551 17.0472 105.251 17.1211 104.917 17.1911C104.582 17.2534 104.247 17.3118 103.913 17.3662C103.578 17.4129 103.275 17.4557 103.002 17.4946C102.419 17.5802 101.909 17.7164 101.473 17.9032C101.037 18.0899 100.699 18.3428 100.458 18.6619C100.216 18.9731 100.096 19.3622 100.096 19.8291C100.096 20.5061 100.341 21.0236 100.831 21.3815C101.329 21.7317 101.96 21.9068 102.722 21.9068ZM115.252 25V7.07114H119.992V10.2344H120.202C120.575 9.18385 121.198 8.35511 122.069 7.74814C122.941 7.14118 123.983 6.8377 125.197 6.8377C126.427 6.8377 127.474 7.14507 128.337 7.75982C129.201 8.36678 129.777 9.19164 130.065 10.2344H130.252C130.617 9.2072 131.279 8.38624 132.236 7.77149C133.201 7.14896 134.341 6.8377 135.656 6.8377C137.329 6.8377 138.687 7.37074 139.73 8.43682C140.78 9.49512 141.305 10.997 141.305 12.9424V25H136.345V13.9229C136.345 12.9268 136.08 12.1798 135.551 11.6818C135.022 11.1837 134.36 10.9347 133.567 10.9347C132.664 10.9347 131.96 11.2226 131.454 11.7985C130.948 12.3665 130.695 13.1175 130.695 14.0513V25H125.874V13.8178C125.874 12.9385 125.622 12.2381 125.116 11.7168C124.618 11.1954 123.96 10.9347 123.143 10.9347C122.591 10.9347 122.093 11.0748 121.649 11.3549C121.213 11.6273 120.867 12.0125 120.61 12.5105C120.353 13.0007 120.225 13.5766 120.225 14.238V25H115.252ZM153.404 25.3502C151.56 25.3502 149.972 24.9767 148.641 24.2296C147.319 23.4748 146.299 22.4087 145.583 21.0314C144.867 19.6462 144.509 18.0082 144.509 16.1173C144.509 14.273 144.867 12.6545 145.583 11.2615C146.299 9.86864 147.307 8.7831 148.606 8.00494C149.914 7.22678 151.447 6.8377 153.205 6.8377C154.388 6.8377 155.489 7.02835 156.509 7.40965C157.536 7.78316 158.431 8.34733 159.193 9.10215C159.964 9.85697 160.563 10.8063 160.991 11.9502C161.419 13.0863 161.633 14.417 161.633 15.9422V17.3079H146.494V14.2263H156.952C156.952 13.5104 156.797 12.8762 156.485 12.3237C156.174 11.7712 155.742 11.3394 155.19 11.0281C154.645 10.7091 154.011 10.5495 153.287 10.5495C152.532 10.5495 151.863 10.7246 151.279 11.0748C150.704 11.4172 150.252 11.8802 149.925 12.4638C149.599 13.0396 149.431 13.6816 149.424 14.3898V17.3195C149.424 18.2066 149.587 18.9731 149.914 19.619C150.248 20.2649 150.719 20.7629 151.326 21.1131C151.933 21.4633 152.653 21.6383 153.486 21.6383C154.038 21.6383 154.544 21.5605 155.003 21.4049C155.462 21.2493 155.855 21.0158 156.182 20.7045C156.509 20.3933 156.758 20.012 156.929 19.5606L161.528 19.8641C161.294 20.9691 160.816 21.934 160.092 22.7589C159.376 23.576 158.45 24.2141 157.314 24.6732C156.186 25.1245 154.882 25.3502 153.404 25.3502ZM179.795 12.1837L175.243 12.4638C175.165 12.0747 174.998 11.7246 174.741 11.4133C174.484 11.0942 174.146 10.8413 173.726 10.6546C173.313 10.46 172.819 10.3628 172.243 10.3628C171.473 10.3628 170.823 10.5262 170.294 10.853C169.765 11.1721 169.5 11.6 169.5 12.137C169.5 12.565 169.671 12.9268 170.014 13.2225C170.356 13.5182 170.944 13.7556 171.776 13.9345L175.021 14.5882C176.764 14.9461 178.064 15.522 178.92 16.3157C179.776 17.1094 180.204 18.1522 180.204 19.4439C180.204 20.6189 179.857 21.65 179.165 22.5371C178.48 23.4242 177.539 24.1168 176.34 24.6148C175.15 25.1051 173.776 25.3502 172.22 25.3502C169.846 25.3502 167.955 24.856 166.547 23.8678C165.146 22.8717 164.325 21.5177 164.084 19.8058L168.975 19.549C169.123 20.2727 169.481 20.8252 170.049 21.2065C170.617 21.58 171.344 21.7667 172.231 21.7667C173.103 21.7667 173.803 21.5994 174.333 21.2648C174.869 20.9224 175.142 20.4828 175.15 19.9458C175.142 19.4945 174.951 19.1249 174.578 18.837C174.204 18.5413 173.628 18.3156 172.85 18.16L169.745 17.5413C167.994 17.1911 166.691 16.5842 165.835 15.7204C164.987 14.8567 164.563 13.7556 164.563 12.4171C164.563 11.2654 164.874 10.2733 165.496 9.44065C166.127 8.60801 167.01 7.96603 168.146 7.5147C169.29 7.06336 170.628 6.8377 172.161 6.8377C174.426 6.8377 176.208 7.31627 177.507 8.2734C178.815 9.23054 179.577 10.534 179.795 12.1837Z" fill="#EA580C"/>
</svg>
